<?xml version="1.0" standalone="no"?>
<!DOCTYPE svg PUBLIC "-//W3C//DTD SVG 20010904//EN"
 "http://www.w3.org/TR/2001/REC-SVG-20010904/DTD/svg10.dtd">
<svg version="1.0" xmlns="http://www.w3.org/2000/svg"
 width="1599.000000pt" height="705.000000pt" viewBox="0 0 1599.000000 705.000000"
 preserveAspectRatio="xMidYMid meet">

<g transform="translate(0.000000,705.000000) scale(0.100000,-0.100000)"
fill="#000000" stroke="none">
<path d="M9066 5579 c-421 -62 -716 -304 -797 -656 -18 -80 -21 -114 -17 -231
8 -207 54 -329 179 -473 152 -175 352 -277 806 -409 385 -112 537 -204 579
-348 21 -71 15 -171 -15 -233 -48 -102 -167 -185 -306 -214 -90 -19 -301 -19
-397 -1 -216 41 -419 147 -581 301 -31 30 -61 55 -66 55 -4 0 -87 -82 -184
-182 -96 -101 -178 -186 -182 -190 -8 -8 107 -125 180 -183 28 -22 52 -43 55
-46 13 -16 158 -103 240 -144 148 -74 268 -114 455 -151 140 -28 465 -26 602
4 507 111 803 440 803 896 0 238 -60 389 -219 546 -165 164 -366 261 -899 434
-255 82 -321 114 -393 185 -45 45 -58 66 -69 109 -27 113 18 230 115 304 233
176 678 124 1002 -118 l72 -54 128 153 c71 83 146 174 168 201 l39 48 -29 25
c-260 215 -537 338 -841 373 -104 12 -344 11 -428 -1z"/>
<path d="M12060 5576 c-245 -44 -438 -123 -637 -260 -275 -190 -490 -478 -592
-796 -95 -292 -101 -651 -17 -942 95 -326 296 -618 566 -820 111 -83 330 -199
450 -237 172 -55 252 -66 495 -66 205 0 241 3 334 23 234 53 470 163 643 301
l57 45 -33 46 c-18 25 -64 88 -101 140 -135 186 -188 255 -196 253 -4 -1 -45
-28 -91 -59 -104 -72 -240 -136 -349 -166 -71 -19 -110 -22 -249 -23 -142 0
-177 3 -249 23 -350 96 -618 371 -713 735 -30 111 -32 364 -5 476 89 367 345
643 694 747 127 38 338 45 470 15 159 -36 282 -89 420 -183 l73 -48 164 219
163 220 -26 24 c-134 122 -391 249 -626 309 -113 29 -133 31 -345 34 -158 2
-247 -1 -300 -10z"/>
<path d="M7060 4020 l0 -1520 295 0 295 0 0 1520 0 1520 -295 0 -295 0 0
-1520z"/>
<path d="M7060 1610 l0 -171 33 3 32 3 0 165 0 165 -32 3 -33 3 0 -171z"/>
<path d="M7200 1610 l0 -170 35 0 35 0 0 117 0 117 82 -117 c77 -109 85 -117
115 -117 l33 0 0 170 0 170 -35 0 -34 0 -3 -112 -3 -111 -78 111 c-74 106 -80
112 -113 112 l-34 0 0 -170z"/>
<path d="M7580 1610 l0 -170 30 0 30 0 0 170 0 170 -30 0 -30 0 0 -170z"/>
<path d="M7702 1753 c3 -26 7 -28 51 -31 l47 -3 0 -140 0 -139 30 0 30 0 0
140 0 140 50 0 c49 0 50 1 50 30 l0 30 -131 0 -130 0 3 -27z"/>
<path d="M8020 1610 l0 -170 30 0 30 0 0 170 0 170 -30 0 -30 0 0 -170z"/>
<path d="M8207 1630 c-79 -202 -77 -192 -36 -188 25 2 35 9 37 23 7 37 23 45
88 45 64 0 65 0 81 -35 14 -29 22 -35 49 -35 l33 0 -25 63 c-14 34 -44 110
-67 169 -40 104 -43 108 -72 108 -29 0 -31 -4 -88 -150z m115 2 c10 -26 18
-53 18 -59 0 -16 -76 -18 -85 -2 -8 12 35 123 43 114 4 -3 14 -27 24 -53z"/>
<path d="M8435 1753 c1 -26 4 -28 48 -31 l47 -3 0 -140 0 -139 35 0 35 0 0
139 0 140 48 3 c43 3 47 5 50 31 l3 27 -134 0 -134 0 2 -27z"/>
<path d="M8750 1610 l0 -170 35 0 35 0 0 170 0 170 -35 0 -35 0 0 -170z"/>
<path d="M8874 1763 c3 -10 32 -85 65 -168 55 -142 60 -150 87 -153 29 -3 30
-1 92 160 34 90 62 167 62 171 0 5 -15 7 -32 5 -32 -3 -34 -5 -75 -122 -24
-66 -45 -121 -46 -123 -2 -1 -23 53 -48 122 l-44 125 -33 0 c-27 0 -32 -3 -28
-17z"/>
<path d="M9240 1610 l0 -170 120 0 120 0 0 30 0 30 -90 0 -90 0 0 40 0 40 70
0 70 0 0 30 0 30 -70 0 -70 0 0 40 0 39 88 3 c87 3 87 3 90 31 l3 27 -120 0
-121 0 0 -170z"/>
<path d="M9660 1610 l0 -170 30 0 30 0 0 60 0 60 65 0 65 0 0 30 c0 29 -1 29
-62 32 l-63 3 -3 47 -3 47 83 3 c82 3 83 3 86 31 l3 27 -115 0 -116 0 0 -170z"/>
<path d="M10005 1766 c-125 -54 -125 -251 -2 -310 47 -22 119 -20 166 4 116
59 114 248 -2 303 -42 20 -120 21 -162 3z m124 -50 c88 -46 80 -185 -13 -216
-44 -14 -77 -5 -112 31 -38 40 -41 115 -4 154 42 46 82 55 129 31z"/>
<path d="M10320 1610 l0 -170 30 0 c28 0 29 1 32 58 l3 57 35 0 c33 0 37 -4
63 -57 26 -54 30 -58 62 -58 19 0 35 3 35 8 -1 4 -14 32 -29 62 l-29 54 26 33
c16 22 25 46 25 71 0 83 -45 112 -173 112 l-80 0 0 -170z m182 85 c17 -38 -3
-72 -46 -80 -62 -12 -71 -6 -74 53 l-3 52 56 0 c49 0 57 -3 67 -25z"/>
<path d="M10782 1755 c-26 -21 -32 -34 -32 -65 0 -52 23 -75 100 -102 60 -21
65 -25 65 -53 0 -24 -5 -31 -32 -38 -25 -8 -41 -5 -74 11 -40 20 -44 20 -61 5
-26 -23 -23 -29 25 -52 110 -53 230 0 213 94 -8 41 -19 50 -103 84 -74 30 -93
59 -53 81 22 12 76 5 98 -13 9 -7 18 -4 33 8 l20 19 -20 20 c-15 15 -38 21
-84 24 -57 4 -66 1 -95 -23z"/>
<path d="M11115 1762 c-106 -68 -122 -197 -34 -277 45 -41 73 -49 140 -43 160
16 208 213 76 312 -40 29 -142 34 -182 8z m130 -48 c35 -16 65 -65 65 -104 0
-40 -30 -88 -67 -105 -30 -15 -42 -15 -75 -6 -95 29 -105 177 -15 216 41 18
52 18 92 -1z"/>
<path d="M11508 1757 c-46 -27 -63 -50 -77 -105 -21 -76 18 -160 91 -198 35
-18 109 -18 153 0 39 17 42 22 19 47 -14 16 -19 16 -52 2 -74 -31 -152 23
-152 107 0 84 78 138 152 107 33 -14 38 -14 52 2 23 25 20 30 -19 47 -52 21
-123 18 -167 -9z"/>
<path d="M11770 1610 l0 -170 30 0 30 0 0 170 0 170 -30 0 -30 0 0 -170z"/>
<path d="M11963 1672 c-23 -59 -53 -135 -67 -169 l-25 -63 33 0 c27 0 35 5 47
33 14 31 16 32 82 35 l68 3 14 -36 c13 -29 20 -35 45 -35 17 0 30 5 30 10 0 6
-27 77 -60 159 -33 82 -60 154 -60 160 0 6 -15 11 -32 11 -33 0 -34 -2 -75
-108z m116 -94 c1 -15 -8 -18 -45 -18 -45 0 -46 1 -41 28 3 15 13 45 23 67
l17 40 23 -50 c12 -27 23 -58 23 -67z"/>
<path d="M12240 1610 l0 -170 109 0 c61 0 112 4 115 8 3 5 2 18 -1 30 -5 20
-12 22 -79 22 l-74 0 0 140 0 140 -35 0 -35 0 0 -170z"/>
<path d="M12699 1757 c-55 -37 -79 -81 -79 -147 0 -62 22 -106 71 -142 46 -34
150 -36 195 -4 18 14 18 15 1 34 -17 19 -21 19 -55 5 -74 -31 -152 23 -152
107 0 84 78 138 152 107 33 -14 38 -14 52 2 22 24 20 28 -14 46 -45 23 -130
20 -171 -8z"/>
<path d="M12960 1610 l0 -170 30 0 30 0 0 75 0 75 80 0 80 0 0 -75 0 -75 35 0
35 0 0 170 0 170 -35 0 -35 0 0 -65 0 -65 -80 0 -80 0 0 65 0 65 -30 0 -30 0
0 -170z"/>
<path d="M13421 1758 c-5 -13 -34 -88 -65 -166 -31 -79 -56 -146 -56 -148 0
-2 13 -4 30 -4 25 0 32 6 44 35 15 35 15 35 78 35 73 0 84 -5 93 -43 6 -23 12
-27 41 -27 l34 0 -24 63 c-107 281 -105 277 -137 277 -21 0 -32 -6 -38 -22z
m66 -127 c11 -33 19 -62 15 -65 -8 -9 -80 -7 -86 2 -6 10 34 122 43 122 3 0
16 -27 28 -59z"/>
<path d="M13670 1610 l0 -170 30 0 30 0 0 110 c0 61 3 110 8 110 4 0 41 -50
82 -110 69 -101 77 -109 108 -110 l32 0 0 170 0 170 -35 0 -34 0 0 -106 c1
-58 -1 -108 -4 -110 -2 -3 -38 45 -78 105 -69 102 -76 110 -106 111 l-33 0 0
-170z"/>
<path d="M14106 1757 c-72 -40 -104 -137 -72 -210 43 -94 144 -133 241 -93 35
15 35 15 35 80 l0 66 -30 0 c-29 0 -30 -1 -30 -49 0 -44 -2 -49 -26 -55 -66
-17 -137 42 -137 114 0 82 85 141 153 106 40 -20 35 -21 54 9 17 25 16 26 -18
40 -52 22 -124 19 -170 -8z"/>
<path d="M14370 1610 l0 -170 125 0 125 0 0 30 0 30 -90 0 -90 0 0 40 0 40 70
0 70 0 0 30 0 30 -70 0 -70 0 0 40 0 39 88 3 c87 3 87 3 90 31 l3 27 -125 0
-126 0 0 -170z"/>
</g>
</svg>
