<?xml version="1.0" encoding="UTF-8" standalone="no" ?>
<!DOCTYPE svg PUBLIC "-//W3C//DTD SVG 1.1//EN" "http://www.w3.org/Graphics/SVG/1.1/DTD/svg11.dtd">
<svg xmlns="http://www.w3.org/2000/svg" xmlns:xlink="http://www.w3.org/1999/xlink" version="1.1" width="600" height="300" viewBox="0 0 600 300" xml:space="preserve">
<desc>Created with Fabric.js 5.2.4</desc>
<defs>
</defs>
<g transform="matrix(1 0 0 1 300 150)" id="78dd0f75-c851-4ed0-8f06-1c951315dfb0"  >
<rect style="stroke: none; stroke-width: 1; stroke-dasharray: none; stroke-linecap: butt; stroke-dashoffset: 0; stroke-linejoin: miter; stroke-miterlimit: 4; fill: rgb(255,255,255); fill-rule: nonzero; opacity: 1; visibility: hidden;" vector-effect="non-scaling-stroke"  x="-300" y="-150" rx="0" ry="0" width="600" height="300" />
</g>
<g transform="matrix(Infinity NaN NaN Infinity 0 0)" id="c85c18ec-3a12-4662-9070-d67b48b0387b"  >
</g>
<g transform="matrix(0.52 0 0 0.52 300 150)"  >
<g style="" vector-effect="non-scaling-stroke"   >
		<g transform="matrix(0.13 0 0 -0.13 -211.76 -67.72)"  >
<path style="stroke: none; stroke-width: 1; stroke-dasharray: none; stroke-linecap: butt; stroke-dashoffset: 0; stroke-linejoin: miter; stroke-miterlimit: 4; fill: rgb(0,0,0); fill-rule: nonzero; opacity: 1;" vector-effect="non-scaling-stroke"  transform=" translate(-9252.3, -4021.35)" d="M 9066 5579 C 8645 5517 8350 5275 8269 4923 C 8251 4843 8248 4809 8252 4692 C 8260 4485 8306 4363 8431 4219 C 8583 4044 8783 3942 9237 3810 C 9622 3698 9774 3606 9816 3462 C 9837 3391 9831 3291 9801 3229 C 9753 3127 9634 3044 9495 3015 C 9405 2996 9194 2996 9098 3014 C 8882 3055 8679 3161 8517 3315 C 8486 3345 8456 3370 8451 3370 C 8447 3370 8364 3288 8267 3188 C 8171 3087 8089 3002 8085 2998 C 8077 2990 8192 2873 8265 2815 C 8293 2793 8317 2772 8320 2769 C 8333 2753 8478 2666 8560 2625 C 8708 2551 8828 2511 9015 2474 C 9155 2446 9480 2448 9617 2478 C 10124 2589 10420 2918 10420 3374 C 10420 3612 10360 3763 10201 3920 C 10036 4084 9835 4181 9302 4354 C 9047 4436 8981 4468 8909 4539 C 8864 4584 8851 4605 8840 4648 C 8813 4761 8858 4878 8955 4952 C 9188 5128 9633 5076 9957 4834 L 10029 4780 L 10157 4933 C 10228 5016 10303 5107 10325 5134 L 10364 5182 L 10335 5207 C 10075 5422 9798 5545 9494 5580 C 9390 5592 9150 5591 9066 5579 z" stroke-linecap="round" />
</g>
		<g transform="matrix(0.13 0 0 -0.13 162.21 -67.65)"  >
<path style="stroke: none; stroke-width: 1; stroke-dasharray: none; stroke-linecap: butt; stroke-dashoffset: 0; stroke-linejoin: miter; stroke-miterlimit: 4; fill: rgb(0,0,0); fill-rule: nonzero; opacity: 1;" vector-effect="non-scaling-stroke"  transform=" translate(-12057.05, -4020.8)" d="M 12060 5576 C 11815 5532 11622 5453 11423 5316 C 11148 5126 10933 4838 10831 4520 C 10736 4228 10730 3869 10814 3578 C 10909 3252 11110 2960 11380 2758 C 11491 2675 11710 2559 11830 2521 C 12002 2466 12082 2455 12325 2455 C 12530 2455 12566 2458 12659 2478 C 12893 2531 13129 2641 13302 2779 L 13359 2824 L 13326 2870 C 13308 2895 13262 2958 13225 3010 C 13090 3196 13037 3265 13029 3263 C 13025 3262 12984 3235 12938 3204 C 12834 3132 12698 3068 12589 3038 C 12518 3019 12479 3016 12340 3015 C 12198 3015 12163 3018 12091 3038 C 11741 3134 11473 3409 11378 3773 C 11348 3884 11346 4137 11373 4249 C 11462 4616 11718 4892 12067 4996 C 12194 5034 12405 5041 12537 5011 C 12696 4975 12819 4922 12957 4828 L 13030 4780 L 13194 4999 L 13357 5219 L 13331 5243 C 13197 5365 12940 5492 12705 5552 C 12592 5581 12572 5583 12360 5586 C 12202 5588 12113 5585 12060 5576 z" stroke-linecap="round" />
</g>
		<g transform="matrix(0.13 0 0 -0.13 -464.73 -67.54)"  >
<path style="stroke: none; stroke-width: 1; stroke-dasharray: none; stroke-linecap: butt; stroke-dashoffset: 0; stroke-linejoin: miter; stroke-miterlimit: 4; fill: rgb(0,0,0); fill-rule: nonzero; opacity: 1;" vector-effect="non-scaling-stroke"  transform=" translate(-7355, -4020)" d="M 7060 4020 L 7060 2500 L 7355 2500 L 7650 2500 L 7650 4020 L 7650 5540 L 7355 5540 L 7060 5540 L 7060 4020 z" stroke-linecap="round" />
</g>
		<g transform="matrix(0.13 0 0 -0.13 -499.73 253.79)"  >
<path style="stroke: none; stroke-width: 1; stroke-dasharray: none; stroke-linecap: butt; stroke-dashoffset: 0; stroke-linejoin: miter; stroke-miterlimit: 4; fill: rgb(0,0,0); fill-rule: nonzero; opacity: 1;" vector-effect="non-scaling-stroke"  transform=" translate(-7092.5, -1610)" d="M 7060 1610 L 7060 1439 L 7093 1442 L 7125 1445 L 7125 1610 L 7125 1775 L 7093 1778 L 7060 1781 L 7060 1610 z" stroke-linecap="round" />
</g>
		<g transform="matrix(0.13 0 0 -0.13 -465.4 253.79)"  >
<path style="stroke: none; stroke-width: 1; stroke-dasharray: none; stroke-linecap: butt; stroke-dashoffset: 0; stroke-linejoin: miter; stroke-miterlimit: 4; fill: rgb(0,0,0); fill-rule: nonzero; opacity: 1;" vector-effect="non-scaling-stroke"  transform=" translate(-7350, -1610)" d="M 7200 1610 L 7200 1440 L 7235 1440 L 7270 1440 L 7270 1557 L 7270 1674 L 7352 1557 C 7429 1448 7437 1440 7467 1440 L 7500 1440 L 7500 1610 L 7500 1780 L 7465 1780 L 7431 1780 L 7428 1668 L 7425 1557 L 7347 1668 C 7273 1774 7267 1780 7234 1780 L 7200 1780 L 7200 1610 z" stroke-linecap="round" />
</g>
		<g transform="matrix(0.13 0 0 -0.13 -430.73 253.79)"  >
<path style="stroke: none; stroke-width: 1; stroke-dasharray: none; stroke-linecap: butt; stroke-dashoffset: 0; stroke-linejoin: miter; stroke-miterlimit: 4; fill: rgb(0,0,0); fill-rule: nonzero; opacity: 1;" vector-effect="non-scaling-stroke"  transform=" translate(-7610, -1610)" d="M 7580 1610 L 7580 1440 L 7610 1440 L 7640 1440 L 7640 1610 L 7640 1780 L 7610 1780 L 7580 1780 L 7580 1610 z" stroke-linecap="round" />
</g>
		<g transform="matrix(0.13 0 0 -0.13 -401.47 253.79)"  >
<path style="stroke: none; stroke-width: 1; stroke-dasharray: none; stroke-linecap: butt; stroke-dashoffset: 0; stroke-linejoin: miter; stroke-miterlimit: 4; fill: rgb(0,0,0); fill-rule: nonzero; opacity: 1;" vector-effect="non-scaling-stroke"  transform=" translate(-7829.5, -1610)" d="M 7702 1753 C 7705 1727 7709 1725 7753 1722 L 7800 1719 L 7800 1579 L 7800 1440 L 7830 1440 L 7860 1440 L 7860 1580 L 7860 1720 L 7910 1720 C 7959 1720 7960 1721 7960 1750 L 7960 1780 L 7829 1780 L 7699 1780 L 7702 1753 z" stroke-linecap="round" />
</g>
		<g transform="matrix(0.13 0 0 -0.13 -372.07 253.79)"  >
<path style="stroke: none; stroke-width: 1; stroke-dasharray: none; stroke-linecap: butt; stroke-dashoffset: 0; stroke-linejoin: miter; stroke-miterlimit: 4; fill: rgb(0,0,0); fill-rule: nonzero; opacity: 1;" vector-effect="non-scaling-stroke"  transform=" translate(-8050, -1610)" d="M 8020 1610 L 8020 1440 L 8050 1440 L 8080 1440 L 8080 1610 L 8080 1780 L 8050 1780 L 8020 1780 L 8020 1610 z" stroke-linecap="round" />
</g>
		<g transform="matrix(0.13 0 0 -0.13 -338.59 253.79)"  >
<path style="stroke: none; stroke-width: 1; stroke-dasharray: none; stroke-linecap: butt; stroke-dashoffset: 0; stroke-linejoin: miter; stroke-miterlimit: 4; fill: rgb(0,0,0); fill-rule: nonzero; opacity: 1;" vector-effect="non-scaling-stroke"  transform=" translate(-8301.04, -1610)" d="M 8207 1630 C 8128 1428 8130 1438 8171 1442 C 8196 1444 8206 1451 8208 1465 C 8215 1502 8231 1510 8296 1510 C 8360 1510 8361 1510 8377 1475 C 8391 1446 8399 1440 8426 1440 L 8459 1440 L 8434 1503 C 8420 1537 8390 1613 8367 1672 C 8327 1776 8324 1780 8295 1780 C 8266 1780 8264 1776 8207 1630 z M 8322 1632 C 8332 1606 8340 1579 8340 1573 C 8340 1557 8264 1555 8255 1571 C 8247 1583 8290 1694 8298 1685 C 8302 1682 8312 1658 8322 1632 z" stroke-linecap="round" />
</g>
		<g transform="matrix(0.13 0 0 -0.13 -303.13 253.79)"  >
<path style="stroke: none; stroke-width: 1; stroke-dasharray: none; stroke-linecap: butt; stroke-dashoffset: 0; stroke-linejoin: miter; stroke-miterlimit: 4; fill: rgb(0,0,0); fill-rule: nonzero; opacity: 1;" vector-effect="non-scaling-stroke"  transform=" translate(-8567, -1610)" d="M 8435 1753 C 8436 1727 8439 1725 8483 1722 L 8530 1719 L 8530 1579 L 8530 1440 L 8565 1440 L 8600 1440 L 8600 1579 L 8600 1719 L 8648 1722 C 8691 1725 8695 1727 8698 1753 L 8701 1780 L 8567 1780 L 8433 1780 L 8435 1753 z" stroke-linecap="round" />
</g>
		<g transform="matrix(0.13 0 0 -0.13 -274.07 253.79)"  >
<path style="stroke: none; stroke-width: 1; stroke-dasharray: none; stroke-linecap: butt; stroke-dashoffset: 0; stroke-linejoin: miter; stroke-miterlimit: 4; fill: rgb(0,0,0); fill-rule: nonzero; opacity: 1;" vector-effect="non-scaling-stroke"  transform=" translate(-8785, -1610)" d="M 8750 1610 L 8750 1440 L 8785 1440 L 8820 1440 L 8820 1610 L 8820 1780 L 8785 1780 L 8750 1780 L 8750 1610 z" stroke-linecap="round" />
</g>
		<g transform="matrix(0.13 0 0 -0.13 -241.88 253.7)"  >
<path style="stroke: none; stroke-width: 1; stroke-dasharray: none; stroke-linecap: butt; stroke-dashoffset: 0; stroke-linejoin: miter; stroke-miterlimit: 4; fill: rgb(0,0,0); fill-rule: nonzero; opacity: 1;" vector-effect="non-scaling-stroke"  transform=" translate(-9026.39, -1610.7)" d="M 8874 1763 C 8877 1753 8906 1678 8939 1595 C 8994 1453 8999 1445 9026 1442 C 9055 1439 9056 1441 9118 1602 C 9152 1692 9180 1769 9180 1773 C 9180 1778 9165 1780 9148 1778 C 9116 1775 9114 1773 9073 1656 C 9049 1590 9028 1535 9027 1533 C 9025 1532 9004 1586 8979 1655 L 8935 1780 L 8902 1780 C 8875 1780 8870 1777 8874 1763 z" stroke-linecap="round" />
</g>
		<g transform="matrix(0.13 0 0 -0.13 -197.33 253.79)"  >
<path style="stroke: none; stroke-width: 1; stroke-dasharray: none; stroke-linecap: butt; stroke-dashoffset: 0; stroke-linejoin: miter; stroke-miterlimit: 4; fill: rgb(0,0,0); fill-rule: nonzero; opacity: 1;" vector-effect="non-scaling-stroke"  transform=" translate(-9360.5, -1610)" d="M 9240 1610 L 9240 1440 L 9360 1440 L 9480 1440 L 9480 1470 L 9480 1500 L 9390 1500 L 9300 1500 L 9300 1540 L 9300 1580 L 9370 1580 L 9440 1580 L 9440 1610 L 9440 1640 L 9370 1640 L 9300 1640 L 9300 1680 L 9300 1719 L 9388 1722 C 9475 1725 9475 1725 9478 1753 L 9481 1780 L 9361 1780 L 9240 1780 L 9240 1610 z" stroke-linecap="round" />
</g>
		<g transform="matrix(0.13 0 0 -0.13 -142 253.79)"  >
<path style="stroke: none; stroke-width: 1; stroke-dasharray: none; stroke-linecap: butt; stroke-dashoffset: 0; stroke-linejoin: miter; stroke-miterlimit: 4; fill: rgb(0,0,0); fill-rule: nonzero; opacity: 1;" vector-effect="non-scaling-stroke"  transform=" translate(-9775.5, -1610)" d="M 9660 1610 L 9660 1440 L 9690 1440 L 9720 1440 L 9720 1500 L 9720 1560 L 9785 1560 L 9850 1560 L 9850 1590 C 9850 1619 9849 1619 9788 1622 L 9725 1625 L 9722 1672 L 9719 1719 L 9802 1722 C 9884 1725 9885 1725 9888 1753 L 9891 1780 L 9776 1780 L 9660 1780 L 9660 1610 z" stroke-linecap="round" />
</g>
		<g transform="matrix(0.13 0 0 -0.13 -101 253.83)"  >
<path style="stroke: none; stroke-width: 1; stroke-dasharray: none; stroke-linecap: butt; stroke-dashoffset: 0; stroke-linejoin: miter; stroke-miterlimit: 4; fill: rgb(0,0,0); fill-rule: nonzero; opacity: 1;" vector-effect="non-scaling-stroke"  transform=" translate(-10083, -1609.73)" d="M 10005 1766 C 9880 1712 9880 1515 10003 1456 C 10050 1434 10122 1436 10169 1460 C 10285 1519 10283 1708 10167 1763 C 10125 1783 10047 1784 10005 1766 z M 10129 1716 C 10217 1670 10209 1531 10116 1500 C 10072 1486 10039 1495 10004 1531 C 9966 1571 9963 1646 10000 1685 C 10042 1731 10082 1740 10129 1716 z" stroke-linecap="round" />
</g>
		<g transform="matrix(0.13 0 0 -0.13 -52.07 253.79)"  >
<path style="stroke: none; stroke-width: 1; stroke-dasharray: none; stroke-linecap: butt; stroke-dashoffset: 0; stroke-linejoin: miter; stroke-miterlimit: 4; fill: rgb(0,0,0); fill-rule: nonzero; opacity: 1;" vector-effect="non-scaling-stroke"  transform=" translate(-10450, -1610)" d="M 10320 1610 L 10320 1440 L 10350 1440 C 10378 1440 10379 1441 10382 1498 L 10385 1555 L 10420 1555 C 10453 1555 10457 1551 10483 1498 C 10509 1444 10513 1440 10545 1440 C 10564 1440 10580 1443 10580 1448 C 10579 1452 10566 1480 10551 1510 L 10522 1564 L 10548 1597 C 10564 1619 10573 1643 10573 1668 C 10573 1751 10528 1780 10400 1780 L 10320 1780 L 10320 1610 z M 10502 1695 C 10519 1657 10499 1623 10456 1615 C 10394 1603 10385 1609 10382 1668 L 10379 1720 L 10435 1720 C 10484 1720 10492 1717 10502 1695 z" stroke-linecap="round" />
</g>
		<g transform="matrix(0.13 0 0 -0.13 2.56 253.83)"  >
<path style="stroke: none; stroke-width: 1; stroke-dasharray: none; stroke-linecap: butt; stroke-dashoffset: 0; stroke-linejoin: miter; stroke-miterlimit: 4; fill: rgb(0,0,0); fill-rule: nonzero; opacity: 1;" vector-effect="non-scaling-stroke"  transform=" translate(-10859.68, -1609.72)" d="M 10782 1755 C 10756 1734 10750 1721 10750 1690 C 10750 1638 10773 1615 10850 1588 C 10910 1567 10915 1563 10915 1535 C 10915 1511 10910 1504 10883 1497 C 10858 1489 10842 1492 10809 1508 C 10769 1528 10765 1528 10748 1513 C 10722 1490 10725 1484 10773 1461 C 10883 1408 11003 1461 10986 1555 C 10978 1596 10967 1605 10883 1639 C 10809 1669 10790 1698 10830 1720 C 10852 1732 10906 1725 10928 1707 C 10937 1700 10946 1703 10961 1715 L 10981 1734 L 10961 1754 C 10946 1769 10923 1775 10877 1778 C 10820 1782 10811 1779 10782 1755 z" stroke-linecap="round" />
</g>
		<g transform="matrix(0.13 0 0 -0.13 47.76 253.85)"  >
<path style="stroke: none; stroke-width: 1; stroke-dasharray: none; stroke-linecap: butt; stroke-dashoffset: 0; stroke-linejoin: miter; stroke-miterlimit: 4; fill: rgb(0,0,0); fill-rule: nonzero; opacity: 1;" vector-effect="non-scaling-stroke"  transform=" translate(-11198.7, -1609.57)" d="M 11115 1762 C 11009 1694 10993 1565 11081 1485 C 11126 1444 11154 1436 11221 1442 C 11381 1458 11429 1655 11297 1754 C 11257 1783 11155 1788 11115 1762 z M 11245 1714 C 11280 1698 11310 1649 11310 1610 C 11310 1570 11280 1522 11243 1505 C 11213 1490 11201 1490 11168 1499 C 11073 1528 11063 1676 11153 1715 C 11194 1733 11205 1733 11245 1714 z" stroke-linecap="round" />
</g>
		<g transform="matrix(0.13 0 0 -0.13 96.86 253.78)"  >
<path style="stroke: none; stroke-width: 1; stroke-dasharray: none; stroke-linecap: butt; stroke-dashoffset: 0; stroke-linejoin: miter; stroke-miterlimit: 4; fill: rgb(0,0,0); fill-rule: nonzero; opacity: 1;" vector-effect="non-scaling-stroke"  transform=" translate(-11566.91, -1610.14)" d="M 11508 1757 C 11462 1730 11445 1707 11431 1652 C 11410 1576 11449 1492 11522 1454 C 11557 1436 11631 1436 11675 1454 C 11714 1471 11717 1476 11694 1501 C 11680 1517 11675 1517 11642 1503 C 11568 1472 11490 1526 11490 1610 C 11490 1694 11568 1748 11642 1717 C 11675 1703 11680 1703 11694 1719 C 11717 1744 11714 1749 11675 1766 C 11623 1787 11552 1784 11508 1757 z" stroke-linecap="round" />
</g>
		<g transform="matrix(0.13 0 0 -0.13 127.93 253.79)"  >
<path style="stroke: none; stroke-width: 1; stroke-dasharray: none; stroke-linecap: butt; stroke-dashoffset: 0; stroke-linejoin: miter; stroke-miterlimit: 4; fill: rgb(0,0,0); fill-rule: nonzero; opacity: 1;" vector-effect="non-scaling-stroke"  transform=" translate(-11800, -1610)" d="M 11770 1610 L 11770 1440 L 11800 1440 L 11830 1440 L 11830 1610 L 11830 1780 L 11800 1780 L 11770 1780 L 11770 1610 z" stroke-linecap="round" />
</g>
		<g transform="matrix(0.13 0 0 -0.13 158.67 253.79)"  >
<path style="stroke: none; stroke-width: 1; stroke-dasharray: none; stroke-linecap: butt; stroke-dashoffset: 0; stroke-linejoin: miter; stroke-miterlimit: 4; fill: rgb(0,0,0); fill-rule: nonzero; opacity: 1;" vector-effect="non-scaling-stroke"  transform=" translate(-12030.5, -1610)" d="M 11963 1672 C 11940 1613 11910 1537 11896 1503 L 11871 1440 L 11904 1440 C 11931 1440 11939 1445 11951 1473 C 11965 1504 11967 1505 12033 1508 L 12101 1511 L 12115 1475 C 12128 1446 12135 1440 12160 1440 C 12177 1440 12190 1445 12190 1450 C 12190 1456 12163 1527 12130 1609 C 12097 1691 12070 1763 12070 1769 C 12070 1775 12055 1780 12038 1780 C 12005 1780 12004 1778 11963 1672 z M 12079 1578 C 12080 1563 12071 1560 12034 1560 C 11989 1560 11988 1561 11993 1588 C 11996 1603 12006 1633 12016 1655 L 12033 1695 L 12056 1645 C 12068 1618 12079 1587 12079 1578 z" stroke-linecap="round" />
</g>
		<g transform="matrix(0.13 0 0 -0.13 201.65 253.79)"  >
<path style="stroke: none; stroke-width: 1; stroke-dasharray: none; stroke-linecap: butt; stroke-dashoffset: 0; stroke-linejoin: miter; stroke-miterlimit: 4; fill: rgb(0,0,0); fill-rule: nonzero; opacity: 1;" vector-effect="non-scaling-stroke"  transform=" translate(-12352.91, -1610)" d="M 12240 1610 L 12240 1440 L 12349 1440 C 12410 1440 12461 1444 12464 1448 C 12467 1453 12466 1466 12463 1478 C 12458 1498 12451 1500 12384 1500 L 12310 1500 L 12310 1640 L 12310 1780 L 12275 1780 L 12240 1780 L 12240 1610 z" stroke-linecap="round" />
</g>
		<g transform="matrix(0.13 0 0 -0.13 255.91 253.69)"  >
<path style="stroke: none; stroke-width: 1; stroke-dasharray: none; stroke-linecap: butt; stroke-dashoffset: 0; stroke-linejoin: miter; stroke-miterlimit: 4; fill: rgb(0,0,0); fill-rule: nonzero; opacity: 1;" vector-effect="non-scaling-stroke"  transform=" translate(-12759.81, -1610.77)" d="M 12699 1757 C 12644 1720 12620 1676 12620 1610 C 12620 1548 12642 1504 12691 1468 C 12737 1434 12841 1432 12886 1464 C 12904 1478 12904 1479 12887 1498 C 12870 1517 12866 1517 12832 1503 C 12758 1472 12680 1526 12680 1610 C 12680 1694 12758 1748 12832 1717 C 12865 1703 12870 1703 12884 1719 C 12906 1743 12904 1747 12870 1765 C 12825 1788 12740 1785 12699 1757 z" stroke-linecap="round" />
</g>
		<g transform="matrix(0.13 0 0 -0.13 301.93 253.79)"  >
<path style="stroke: none; stroke-width: 1; stroke-dasharray: none; stroke-linecap: butt; stroke-dashoffset: 0; stroke-linejoin: miter; stroke-miterlimit: 4; fill: rgb(0,0,0); fill-rule: nonzero; opacity: 1;" vector-effect="non-scaling-stroke"  transform=" translate(-13105, -1610)" d="M 12960 1610 L 12960 1440 L 12990 1440 L 13020 1440 L 13020 1515 L 13020 1590 L 13100 1590 L 13180 1590 L 13180 1515 L 13180 1440 L 13215 1440 L 13250 1440 L 13250 1610 L 13250 1780 L 13215 1780 L 13180 1780 L 13180 1715 L 13180 1650 L 13100 1650 L 13020 1650 L 13020 1715 L 13020 1780 L 12990 1780 L 12960 1780 L 12960 1610 z" stroke-linecap="round" />
</g>
		<g transform="matrix(0.13 0 0 -0.13 349.27 253.79)"  >
<path style="stroke: none; stroke-width: 1; stroke-dasharray: none; stroke-linecap: butt; stroke-dashoffset: 0; stroke-linejoin: miter; stroke-miterlimit: 4; fill: rgb(0,0,0); fill-rule: nonzero; opacity: 1;" vector-effect="non-scaling-stroke"  transform=" translate(-13460, -1610)" d="M 13421 1758 C 13416 1745 13387 1670 13356 1592 C 13325 1513 13300 1446 13300 1444 C 13300 1442 13313 1440 13330 1440 C 13355 1440 13362 1446 13374 1475 C 13389 1510 13389 1510 13452 1510 C 13525 1510 13536 1505 13545 1467 C 13551 1444 13557 1440 13586 1440 L 13620 1440 L 13596 1503 C 13489 1784 13491 1780 13459 1780 C 13438 1780 13427 1774 13421 1758 z M 13487 1631 C 13498 1598 13506 1569 13502 1566 C 13494 1557 13422 1559 13416 1568 C 13410 1578 13450 1690 13459 1690 C 13462 1690 13475 1663 13487 1631 z" stroke-linecap="round" />
</g>
		<g transform="matrix(0.13 0 0 -0.13 396.6 253.79)"  >
<path style="stroke: none; stroke-width: 1; stroke-dasharray: none; stroke-linecap: butt; stroke-dashoffset: 0; stroke-linejoin: miter; stroke-miterlimit: 4; fill: rgb(0,0,0); fill-rule: nonzero; opacity: 1;" vector-effect="non-scaling-stroke"  transform=" translate(-13815, -1610)" d="M 13670 1610 L 13670 1440 L 13700 1440 L 13730 1440 L 13730 1550 C 13730 1611 13733 1660 13738 1660 C 13742 1660 13779 1610 13820 1550 C 13889 1449 13897 1441 13928 1440 L 13960 1440 L 13960 1610 L 13960 1780 L 13925 1780 L 13891 1780 L 13891 1674 C 13892 1616 13890 1566 13887 1564 C 13885 1561 13849 1609 13809 1669 C 13740 1771 13733 1779 13703 1780 L 13670 1780 L 13670 1610 z" stroke-linecap="round" />
</g>
		<g transform="matrix(0.13 0 0 -0.13 443.37 253.93)"  >
<path style="stroke: none; stroke-width: 1; stroke-dasharray: none; stroke-linecap: butt; stroke-dashoffset: 0; stroke-linejoin: miter; stroke-miterlimit: 4; fill: rgb(0,0,0); fill-rule: nonzero; opacity: 1;" vector-effect="non-scaling-stroke"  transform=" translate(-14165.8, -1609)" d="M 14106 1757 C 14034 1717 14002 1620 14034 1547 C 14077 1453 14178 1414 14275 1454 C 14310 1469 14310 1469 14310 1534 L 14310 1600 L 14280 1600 C 14251 1600 14250 1599 14250 1551 C 14250 1507 14248 1502 14224 1496 C 14158 1479 14087 1538 14087 1610 C 14087 1692 14172 1751 14240 1716 C 14280 1696 14275 1695 14294 1725 C 14311 1750 14310 1751 14276 1765 C 14224 1787 14152 1784 14106 1757 z" stroke-linecap="round" />
</g>
		<g transform="matrix(0.13 0 0 -0.13 487.33 253.79)"  >
<path style="stroke: none; stroke-width: 1; stroke-dasharray: none; stroke-linecap: butt; stroke-dashoffset: 0; stroke-linejoin: miter; stroke-miterlimit: 4; fill: rgb(0,0,0); fill-rule: nonzero; opacity: 1;" vector-effect="non-scaling-stroke"  transform=" translate(-14495.5, -1610)" d="M 14370 1610 L 14370 1440 L 14495 1440 L 14620 1440 L 14620 1470 L 14620 1500 L 14530 1500 L 14440 1500 L 14440 1540 L 14440 1580 L 14510 1580 L 14580 1580 L 14580 1610 L 14580 1640 L 14510 1640 L 14440 1640 L 14440 1680 L 14440 1719 L 14528 1722 C 14615 1725 14615 1725 14618 1753 L 14621 1780 L 14496 1780 L 14370 1780 L 14370 1610 z" stroke-linecap="round" />
</g>
</g>
</g>
</svg>